<mxfile host="65bd71144e">
    <diagram id="816c2qytRhUF1FWbcgLo" name="Page-1">
        <mxGraphModel dx="2477" dy="2186" grid="1" gridSize="10" guides="1" tooltips="1" connect="1" arrows="1" fold="1" page="1" pageScale="1" pageWidth="16000" pageHeight="6000" math="0" shadow="0">
            <root>
                <mxCell id="0"/>
                <mxCell id="1" parent="0"/>
                <mxCell id="173" style="edgeStyle=elbowEdgeStyle;shape=connector;rounded=1;html=1;labelBackgroundColor=default;strokeColor=#B3B3B3;fontFamily=Helvetica;fontSize=62;fontColor=#1BA1E2;endArrow=classic;elbow=vertical;" edge="1" parent="1" source="2" target="160">
                    <mxGeometry relative="1" as="geometry"/>
                </mxCell>
                <mxCell id="2" value="SliceCompleted&lt;br&gt;&amp;nbsp;- time: 2024-02-08&lt;br&gt;&amp;nbsp;- contractor: Joe Smitth&lt;br&gt;&amp;nbsp;- client: Uber&lt;br&gt;&amp;nbsp;- project: ride_requests&lt;br&gt;&amp;nbsp;- type: State View&lt;br&gt;&amp;nbsp;- name: PotentialDriverList" style="rounded=0;whiteSpace=wrap;html=1;fillColor=#ffff88;strokeColor=#36393d;align=left;verticalAlign=top;fontColor=#000000;" parent="1" vertex="1">
                    <mxGeometry x="3810" y="2760" width="180" height="130" as="geometry"/>
                </mxCell>
                <mxCell id="84" style="edgeStyle=elbowEdgeStyle;shape=connector;rounded=1;elbow=vertical;html=1;entryX=0.5;entryY=1;entryDx=0;entryDy=0;labelBackgroundColor=default;strokeColor=#999999;fontFamily=Helvetica;fontSize=12;fontColor=#000000;endArrow=classic;" parent="1" source="3" target="77" edge="1">
                    <mxGeometry relative="1" as="geometry"/>
                </mxCell>
                <mxCell id="3" value="ClientAccuired&lt;br&gt;&amp;nbsp;- time: 2024-01-01&lt;br&gt;&amp;nbsp;- name: Uber&lt;br&gt;&amp;nbsp;- invoice_prefix: UBR&lt;br&gt;&amp;nbsp;- slice_rate: $500/slice&lt;br&gt;&amp;nbsp;- hour_rate: $50/hr&lt;br&gt;&amp;nbsp;- taxable: yes" style="rounded=0;whiteSpace=wrap;html=1;fillColor=#ffff88;strokeColor=#36393d;align=left;verticalAlign=top;fontColor=#000000;" parent="1" vertex="1">
                    <mxGeometry x="1653.75" y="2760" width="180" height="130" as="geometry"/>
                </mxCell>
                <mxCell id="4" value="HourlyTaskCompleted&lt;br&gt;&amp;nbsp;- time: 2024-01-07&lt;br&gt;&amp;nbsp;- contractor: Joe Smitth&lt;br&gt;&amp;nbsp;- description: CI/CD setup&lt;br&gt;&amp;nbsp;- amount: 8 hours" style="rounded=0;whiteSpace=wrap;html=1;fillColor=#ffff88;strokeColor=#36393d;align=left;verticalAlign=top;fontColor=#000000;" parent="1" vertex="1">
                    <mxGeometry x="4120" y="2760" width="180" height="100" as="geometry"/>
                </mxCell>
                <mxCell id="5" value="Invoice Gererated" style="rounded=0;whiteSpace=wrap;html=1;fillColor=#ffff88;strokeColor=#36393d;align=left;verticalAlign=top;fontColor=#000000;" parent="1" vertex="1">
                    <mxGeometry x="4832.5" y="2800" width="140" height="50" as="geometry"/>
                </mxCell>
                <mxCell id="6" value="Finalize Work" style="rounded=0;whiteSpace=wrap;html=1;fillColor=#ffff88;strokeColor=#36393d;align=left;verticalAlign=top;fontColor=#000000;" parent="1" vertex="1">
                    <mxGeometry x="4330" y="2760" width="140" height="50" as="geometry"/>
                </mxCell>
                <mxCell id="7" value="Work Approved&lt;br&gt;&amp;nbsp;- admin person: Adam&lt;br&gt;&amp;nbsp;- contractor: Smith.Joe" style="rounded=0;whiteSpace=wrap;html=1;fillColor=#ffff88;strokeColor=#36393d;align=left;verticalAlign=top;fontColor=#000000;" parent="1" vertex="1">
                    <mxGeometry x="4510" y="2760" width="140" height="60" as="geometry"/>
                </mxCell>
                <mxCell id="8" value="Invoice Sent" style="rounded=0;whiteSpace=wrap;html=1;fillColor=#ffff88;strokeColor=#36393d;align=left;verticalAlign=top;fontColor=#000000;" parent="1" vertex="1">
                    <mxGeometry x="5002.5" y="2800" width="140" height="50" as="geometry"/>
                </mxCell>
                <mxCell id="9" value="Invoice Paid" style="rounded=0;whiteSpace=wrap;html=1;fillColor=#ffff88;strokeColor=#36393d;align=left;verticalAlign=top;fontColor=#000000;" parent="1" vertex="1">
                    <mxGeometry x="5162.5" y="2800" width="140" height="50" as="geometry"/>
                </mxCell>
                <mxCell id="10" value="ContractorHired&lt;br&gt;&amp;nbsp;- date: 2023-12-15&lt;br&gt;&amp;nbsp;- name: Joe Smith&lt;br&gt;&amp;nbsp;- id: smith.joe&lt;br&gt;&amp;nbsp;" style="rounded=0;whiteSpace=wrap;html=1;fillColor=#ffff88;strokeColor=#36393d;align=left;verticalAlign=top;fontColor=#000000;" parent="1" vertex="1">
                    <mxGeometry x="1020" y="2760" width="180" height="100" as="geometry"/>
                </mxCell>
                <mxCell id="11" value="CompanySetup&lt;br&gt;&amp;nbsp;- date: 2023-12-01&lt;br&gt;&amp;nbsp;- name: Event Modeling Inc.&lt;br&gt;&amp;nbsp;- address: 123 Abc Ave. Vancouver, V1V 1V1&lt;br&gt;&amp;nbsp;- contact_info: info@eventmodeling.com" style="rounded=0;whiteSpace=wrap;html=1;fillColor=#ffff88;strokeColor=#36393d;align=left;verticalAlign=top;fontColor=#000000;" parent="1" vertex="1">
                    <mxGeometry x="590" y="2760" width="180" height="140" as="geometry"/>
                </mxCell>
                <mxCell id="12" value="TaxAdded:&lt;br&gt;&amp;nbsp;- date: 2023-12-01&lt;br&gt;&amp;nbsp;- name: GST&lt;br&gt;&amp;nbsp;- amount: 0.05&lt;br&gt;&amp;nbsp;- effective_date: 2024-01-01&lt;br&gt;&amp;nbsp;- registration_no: 123456789 RT 001" style="rounded=0;whiteSpace=wrap;html=1;fillColor=#ffff88;strokeColor=#36393d;align=left;verticalAlign=top;fontColor=#000000;" parent="1" vertex="1">
                    <mxGeometry x="810" y="2760" width="180" height="140" as="geometry"/>
                </mxCell>
                <mxCell id="14" value="" style="rounded=0;whiteSpace=wrap;html=1;fillColor=#f5f5f5;fontColor=#333333;strokeColor=#666666;" parent="1" vertex="1">
                    <mxGeometry x="2170" y="1830" width="350" height="340" as="geometry"/>
                </mxCell>
                <mxCell id="16" value="Work Entry" style="rounded=0;whiteSpace=wrap;html=1;strokeColor=none;fontFamily=Helvetica;fontSize=12;fontColor=#333333;fillColor=#f5f5f5;align=left;verticalAlign=top;" parent="1" vertex="1">
                    <mxGeometry x="2190" y="1870" width="100" height="30" as="geometry"/>
                </mxCell>
                <mxCell id="17" value="" style="shape=actor;whiteSpace=wrap;html=1;rounded=0;strokeColor=#666666;fontFamily=Helvetica;fontSize=12;fontColor=#333333;fillColor=#f5f5f5;" parent="1" vertex="1">
                    <mxGeometry x="440" y="1960" width="100" height="120" as="geometry"/>
                </mxCell>
                <mxCell id="18" value="" style="shape=actor;whiteSpace=wrap;html=1;rounded=0;strokeColor=#666666;fontFamily=Helvetica;fontSize=12;fontColor=#333333;fillColor=#f5f5f5;" parent="1" vertex="1">
                    <mxGeometry x="440" y="570" width="100" height="120" as="geometry"/>
                </mxCell>
                <mxCell id="19" value="Enter Slice" style="rounded=0;whiteSpace=wrap;html=1;strokeColor=#666666;fontFamily=Helvetica;fontSize=12;fontColor=#333333;fillColor=#FF9999;" parent="1" vertex="1">
                    <mxGeometry x="2190" y="1900" width="90" height="20" as="geometry"/>
                </mxCell>
                <mxCell id="20" value="Enter Hours" style="rounded=0;whiteSpace=wrap;html=1;strokeColor=#666666;fontFamily=Helvetica;fontSize=12;fontColor=#333333;fillColor=#f5f5f5;" parent="1" vertex="1">
                    <mxGeometry x="2280" y="1900" width="90" height="20" as="geometry"/>
                </mxCell>
                <mxCell id="21" value="&lt;span style=&quot;background-color: rgb(255, 153, 153);&quot;&gt;Work Entry&lt;/span&gt; | Invoicing | Reports | Logout" style="rounded=0;whiteSpace=wrap;html=1;strokeColor=#666666;fontFamily=Helvetica;fontSize=12;fontColor=#333333;fillColor=#f5f5f5;align=right;" parent="1" vertex="1">
                    <mxGeometry x="2170" y="1830" width="350" height="30" as="geometry"/>
                </mxCell>
                <mxCell id="22" value="" style="rounded=0;whiteSpace=wrap;html=1;strokeColor=#666666;fontFamily=Helvetica;fontSize=12;fontColor=#333333;fillColor=#f5f5f5;" parent="1" vertex="1">
                    <mxGeometry x="2188.75" y="1920" width="310" height="230" as="geometry"/>
                </mxCell>
                <mxCell id="23" value="" style="rounded=0;whiteSpace=wrap;html=1;strokeColor=#666666;fontFamily=Helvetica;fontSize=12;fontColor=#333333;fillColor=#f5f5f5;" parent="1" vertex="1">
                    <mxGeometry x="2257.5" y="2050" width="172.5" height="20" as="geometry"/>
                </mxCell>
                <mxCell id="24" value="" style="rounded=0;whiteSpace=wrap;html=1;strokeColor=#666666;fontFamily=Helvetica;fontSize=12;fontColor=#333333;fillColor=#f5f5f5;" parent="1" vertex="1">
                    <mxGeometry x="2257.5" y="2080" width="72.5" height="20" as="geometry"/>
                </mxCell>
                <mxCell id="25" value="pick client" style="rounded=0;whiteSpace=wrap;html=1;strokeColor=#666666;fontFamily=Helvetica;fontSize=12;fontColor=#333333;fillColor=#f5f5f5;" parent="1" vertex="1">
                    <mxGeometry x="2257.5" y="1990" width="112.5" height="20" as="geometry"/>
                </mxCell>
                <mxCell id="26" value="client" style="rounded=0;whiteSpace=wrap;html=1;strokeColor=#666666;fontFamily=Helvetica;fontSize=12;fontColor=#333333;fillColor=#f5f5f5;align=right;" parent="1" vertex="1">
                    <mxGeometry x="2210" y="1990" width="47.5" height="20" as="geometry"/>
                </mxCell>
                <mxCell id="27" value="date" style="rounded=0;whiteSpace=wrap;html=1;strokeColor=#666666;fontFamily=Helvetica;fontSize=12;fontColor=#333333;fillColor=#f5f5f5;align=right;" parent="1" vertex="1">
                    <mxGeometry x="2210" y="2080" width="47.5" height="20" as="geometry"/>
                </mxCell>
                <mxCell id="28" value="name" style="rounded=0;whiteSpace=wrap;html=1;strokeColor=#666666;fontFamily=Helvetica;fontSize=12;fontColor=#333333;fillColor=#f5f5f5;align=right;" parent="1" vertex="1">
                    <mxGeometry x="2210" y="2050" width="47.5" height="20" as="geometry"/>
                </mxCell>
                <mxCell id="29" value="Enter the slice you completed:" style="rounded=0;whiteSpace=wrap;html=1;strokeColor=none;fontFamily=Helvetica;fontSize=12;fontColor=#333333;fillColor=#f5f5f5;" parent="1" vertex="1">
                    <mxGeometry x="2200" y="1920" width="170" height="30" as="geometry"/>
                </mxCell>
                <mxCell id="30" value="Save" style="rounded=0;whiteSpace=wrap;html=1;strokeColor=#666666;fontFamily=Helvetica;fontSize=12;fontColor=#333333;fillColor=#f5f5f5;" parent="1" vertex="1">
                    <mxGeometry x="2380" y="2090" width="80" height="30" as="geometry"/>
                </mxCell>
                <mxCell id="45" value="" style="rounded=0;whiteSpace=wrap;html=1;fillColor=#f5f5f5;fontColor=#333333;strokeColor=#666666;" parent="1" vertex="1">
                    <mxGeometry x="2580" y="1830" width="350" height="340" as="geometry"/>
                </mxCell>
                <mxCell id="46" value="Work Entry" style="rounded=0;whiteSpace=wrap;html=1;strokeColor=none;fontFamily=Helvetica;fontSize=12;fontColor=#333333;fillColor=#f5f5f5;align=left;verticalAlign=top;" parent="1" vertex="1">
                    <mxGeometry x="2600" y="1870" width="100" height="30" as="geometry"/>
                </mxCell>
                <mxCell id="47" value="Enter Slice" style="rounded=0;whiteSpace=wrap;html=1;strokeColor=#666666;fontFamily=Helvetica;fontSize=12;fontColor=#333333;fillColor=#FF9999;" parent="1" vertex="1">
                    <mxGeometry x="2600" y="1900" width="90" height="20" as="geometry"/>
                </mxCell>
                <mxCell id="48" value="Enter Hours" style="rounded=0;whiteSpace=wrap;html=1;strokeColor=#666666;fontFamily=Helvetica;fontSize=12;fontColor=#333333;fillColor=#f5f5f5;" parent="1" vertex="1">
                    <mxGeometry x="2690" y="1900" width="90" height="20" as="geometry"/>
                </mxCell>
                <mxCell id="49" value="&lt;span style=&quot;background-color: rgb(255, 153, 153);&quot;&gt;Work Entry&lt;/span&gt; | Invoicing | Reports | Logout" style="rounded=0;whiteSpace=wrap;html=1;strokeColor=#666666;fontFamily=Helvetica;fontSize=12;fontColor=#333333;fillColor=#f5f5f5;align=right;" parent="1" vertex="1">
                    <mxGeometry x="2580" y="1830" width="350" height="30" as="geometry"/>
                </mxCell>
                <mxCell id="50" value="" style="rounded=0;whiteSpace=wrap;html=1;strokeColor=#666666;fontFamily=Helvetica;fontSize=12;fontColor=#333333;fillColor=#f5f5f5;" parent="1" vertex="1">
                    <mxGeometry x="2598.75" y="1920" width="310" height="230" as="geometry"/>
                </mxCell>
                <mxCell id="51" value="" style="rounded=0;whiteSpace=wrap;html=1;strokeColor=#666666;fontFamily=Helvetica;fontSize=12;fontColor=#333333;fillColor=#f5f5f5;" parent="1" vertex="1">
                    <mxGeometry x="2672.5" y="2050" width="172.5" height="20" as="geometry"/>
                </mxCell>
                <mxCell id="52" value="" style="rounded=0;whiteSpace=wrap;html=1;strokeColor=#666666;fontFamily=Helvetica;fontSize=12;fontColor=#333333;fillColor=#f5f5f5;" parent="1" vertex="1">
                    <mxGeometry x="2672.5" y="2080" width="72.5" height="20" as="geometry"/>
                </mxCell>
                <mxCell id="53" value="pick client" style="rounded=0;whiteSpace=wrap;html=1;strokeColor=#666666;fontFamily=Helvetica;fontSize=12;fontColor=#333333;fillColor=#f5f5f5;" parent="1" vertex="1">
                    <mxGeometry x="2672.5" y="1990" width="112.5" height="20" as="geometry"/>
                </mxCell>
                <mxCell id="54" value="client" style="rounded=0;whiteSpace=wrap;html=1;strokeColor=#666666;fontFamily=Helvetica;fontSize=12;fontColor=#333333;fillColor=#f5f5f5;align=right;" parent="1" vertex="1">
                    <mxGeometry x="2625" y="1990" width="47.5" height="20" as="geometry"/>
                </mxCell>
                <mxCell id="55" value="date" style="rounded=0;whiteSpace=wrap;html=1;strokeColor=#666666;fontFamily=Helvetica;fontSize=12;fontColor=#333333;fillColor=#f5f5f5;align=right;" parent="1" vertex="1">
                    <mxGeometry x="2625" y="2080" width="47.5" height="20" as="geometry"/>
                </mxCell>
                <mxCell id="56" value="name" style="rounded=0;whiteSpace=wrap;html=1;strokeColor=#666666;fontFamily=Helvetica;fontSize=12;fontColor=#333333;fillColor=#f5f5f5;align=right;" parent="1" vertex="1">
                    <mxGeometry x="2625" y="2050" width="47.5" height="20" as="geometry"/>
                </mxCell>
                <mxCell id="57" value="Enter the slice you completed:" style="rounded=0;whiteSpace=wrap;html=1;strokeColor=none;fontFamily=Helvetica;fontSize=12;fontColor=#333333;fillColor=#f5f5f5;" parent="1" vertex="1">
                    <mxGeometry x="2610" y="1920" width="170" height="30" as="geometry"/>
                </mxCell>
                <mxCell id="58" value="Save" style="rounded=0;whiteSpace=wrap;html=1;strokeColor=#666666;fontFamily=Helvetica;fontSize=12;fontColor=#333333;fillColor=#f5f5f5;" parent="1" vertex="1">
                    <mxGeometry x="2790" y="2090" width="80" height="30" as="geometry"/>
                </mxCell>
                <mxCell id="59" value="" style="rounded=0;whiteSpace=wrap;html=1;fillColor=#f5f5f5;fontColor=#333333;strokeColor=#666666;" parent="1" vertex="1">
                    <mxGeometry x="3390" y="1830" width="350" height="340" as="geometry"/>
                </mxCell>
                <mxCell id="60" value="Work Entry" style="rounded=0;whiteSpace=wrap;html=1;strokeColor=none;fontFamily=Helvetica;fontSize=12;fontColor=#333333;fillColor=#f5f5f5;align=left;verticalAlign=top;" parent="1" vertex="1">
                    <mxGeometry x="3410" y="1870" width="100" height="30" as="geometry"/>
                </mxCell>
                <mxCell id="61" value="Enter Slice" style="rounded=0;whiteSpace=wrap;html=1;strokeColor=#666666;fontFamily=Helvetica;fontSize=12;fontColor=#333333;fillColor=#FF9999;" parent="1" vertex="1">
                    <mxGeometry x="3410" y="1900" width="90" height="20" as="geometry"/>
                </mxCell>
                <mxCell id="62" value="Enter Hours" style="rounded=0;whiteSpace=wrap;html=1;strokeColor=#666666;fontFamily=Helvetica;fontSize=12;fontColor=#333333;fillColor=#f5f5f5;" parent="1" vertex="1">
                    <mxGeometry x="3500" y="1900" width="90" height="20" as="geometry"/>
                </mxCell>
                <mxCell id="63" value="&lt;span style=&quot;background-color: rgb(255, 153, 153);&quot;&gt;Work Entry&lt;/span&gt; | Invoicing | Reports | Logout" style="rounded=0;whiteSpace=wrap;html=1;strokeColor=#666666;fontFamily=Helvetica;fontSize=12;fontColor=#333333;fillColor=#f5f5f5;align=right;" parent="1" vertex="1">
                    <mxGeometry x="3390" y="1830" width="350" height="30" as="geometry"/>
                </mxCell>
                <mxCell id="64" value="" style="rounded=0;whiteSpace=wrap;html=1;strokeColor=#666666;fontFamily=Helvetica;fontSize=12;fontColor=#333333;fillColor=#f5f5f5;" parent="1" vertex="1">
                    <mxGeometry x="3408.75" y="1920" width="310" height="230" as="geometry"/>
                </mxCell>
                <mxCell id="65" value="PotentialDriverList" style="rounded=0;whiteSpace=wrap;html=1;strokeColor=#666666;fontFamily=Helvetica;fontSize=12;fontColor=#333333;fillColor=#99CCFF;" parent="1" vertex="1">
                    <mxGeometry x="3482.5" y="2050" width="172.5" height="20" as="geometry"/>
                </mxCell>
                <mxCell id="66" value="2024-02-08" style="rounded=0;whiteSpace=wrap;html=1;strokeColor=#666666;fontFamily=Helvetica;fontSize=12;fontColor=#333333;fillColor=#99CCFF;" parent="1" vertex="1">
                    <mxGeometry x="3482.5" y="2080" width="72.5" height="20" as="geometry"/>
                </mxCell>
                <mxCell id="67" value="Uber" style="rounded=0;whiteSpace=wrap;html=1;strokeColor=#666666;fontFamily=Helvetica;fontSize=12;fontColor=#333333;fillColor=#99CCFF;" parent="1" vertex="1">
                    <mxGeometry x="3482.5" y="1990" width="112.5" height="20" as="geometry"/>
                </mxCell>
                <mxCell id="68" value="client" style="rounded=0;whiteSpace=wrap;html=1;strokeColor=#666666;fontFamily=Helvetica;fontSize=12;fontColor=#333333;fillColor=#f5f5f5;align=right;" parent="1" vertex="1">
                    <mxGeometry x="3435" y="1990" width="47.5" height="20" as="geometry"/>
                </mxCell>
                <mxCell id="69" value="date" style="rounded=0;whiteSpace=wrap;html=1;strokeColor=#666666;fontFamily=Helvetica;fontSize=12;fontColor=#333333;fillColor=#f5f5f5;align=right;" parent="1" vertex="1">
                    <mxGeometry x="3435" y="2080" width="47.5" height="20" as="geometry"/>
                </mxCell>
                <mxCell id="70" value="name" style="rounded=0;whiteSpace=wrap;html=1;strokeColor=#666666;fontFamily=Helvetica;fontSize=12;fontColor=#333333;fillColor=#f5f5f5;align=right;" parent="1" vertex="1">
                    <mxGeometry x="3435" y="2050" width="47.5" height="20" as="geometry"/>
                </mxCell>
                <mxCell id="71" value="Enter the slice you completed:" style="rounded=0;whiteSpace=wrap;html=1;strokeColor=none;fontFamily=Helvetica;fontSize=12;fontColor=#333333;fillColor=#f5f5f5;" parent="1" vertex="1">
                    <mxGeometry x="3420" y="1920" width="170" height="30" as="geometry"/>
                </mxCell>
                <mxCell id="86" style="edgeStyle=elbowEdgeStyle;shape=connector;rounded=1;elbow=vertical;html=1;entryX=0.5;entryY=0;entryDx=0;entryDy=0;labelBackgroundColor=default;strokeColor=#999999;fontFamily=Helvetica;fontSize=12;fontColor=#000000;endArrow=classic;" parent="1" source="72" target="85" edge="1">
                    <mxGeometry relative="1" as="geometry"/>
                </mxCell>
                <mxCell id="72" value="Save" style="rounded=0;whiteSpace=wrap;html=1;strokeColor=#666666;fontFamily=Helvetica;fontSize=12;fontColor=#333333;fillColor=#99CCFF;" parent="1" vertex="1">
                    <mxGeometry x="3600" y="2090" width="80" height="30" as="geometry"/>
                </mxCell>
                <mxCell id="83" style="edgeStyle=elbowEdgeStyle;shape=connector;rounded=1;elbow=vertical;html=1;entryX=0.5;entryY=1;entryDx=0;entryDy=0;labelBackgroundColor=default;strokeColor=#999999;fontFamily=Helvetica;fontSize=12;fontColor=#000000;endArrow=classic;" parent="1" source="74" target="77" edge="1">
                    <mxGeometry relative="1" as="geometry"/>
                </mxCell>
                <mxCell id="238" style="edgeStyle=elbowEdgeStyle;shape=connector;rounded=1;elbow=vertical;html=1;entryX=0.5;entryY=1;entryDx=0;entryDy=0;labelBackgroundColor=default;strokeColor=#999999;fontFamily=Helvetica;fontSize=32;fontColor=#3399FF;endArrow=classic;" edge="1" parent="1" source="74" target="237">
                    <mxGeometry relative="1" as="geometry">
                        <Array as="points">
                            <mxPoint x="6950" y="2590"/>
                        </Array>
                    </mxGeometry>
                </mxCell>
                <mxCell id="74" value="ClientAccuired&lt;br&gt;&amp;nbsp;- time: 2024-01-01&lt;br&gt;&amp;nbsp;- name: Spotify&lt;br&gt;&amp;nbsp;- invoice_prefix: SPO&lt;br&gt;&amp;nbsp;- slice_rate: $500/slice&lt;br&gt;&amp;nbsp;- hour_rate: $50/hr&lt;br&gt;&amp;nbsp;- taxable: yes" style="rounded=0;whiteSpace=wrap;html=1;fillColor=#ffff88;strokeColor=#36393d;align=left;verticalAlign=top;fontColor=#000000;" parent="1" vertex="1">
                    <mxGeometry x="1450" y="2760" width="180" height="130" as="geometry"/>
                </mxCell>
                <mxCell id="82" style="edgeStyle=elbowEdgeStyle;shape=connector;rounded=1;html=1;entryX=0.5;entryY=1;entryDx=0;entryDy=0;labelBackgroundColor=default;strokeColor=#999999;fontFamily=Helvetica;fontSize=12;fontColor=#000000;endArrow=classic;elbow=vertical;" parent="1" source="75" target="77" edge="1">
                    <mxGeometry relative="1" as="geometry"/>
                </mxCell>
                <mxCell id="75" value="ClientAccuired&lt;br&gt;&amp;nbsp;- time: 2024-01-01&lt;br&gt;&amp;nbsp;- name: Fedex&lt;br&gt;&amp;nbsp;- invoice_prefix: FED&lt;br&gt;&amp;nbsp;- slice_rate: $500/slice&lt;br&gt;&amp;nbsp;- hour_rate: $50/hr&lt;br&gt;&amp;nbsp;- taxable: yes" style="rounded=0;whiteSpace=wrap;html=1;fillColor=#ffff88;strokeColor=#36393d;align=left;verticalAlign=top;fontColor=#000000;" parent="1" vertex="1">
                    <mxGeometry x="1240" y="2760" width="180" height="130" as="geometry"/>
                </mxCell>
                <mxCell id="80" style="edgeStyle=elbowEdgeStyle;shape=connector;rounded=1;html=1;entryX=0.5;entryY=1;entryDx=0;entryDy=0;labelBackgroundColor=default;strokeColor=#999999;fontFamily=Helvetica;fontSize=12;fontColor=#000000;endArrow=classic;elbow=vertical;" parent="1" source="77" target="73" edge="1">
                    <mxGeometry relative="1" as="geometry"/>
                </mxCell>
                <mxCell id="77" value="Clients&lt;br&gt;&amp;nbsp;[&lt;br&gt;&amp;nbsp; &amp;nbsp;Uber,&lt;br&gt;&amp;nbsp; &amp;nbsp;Fedex,&lt;br&gt;&amp;nbsp; &amp;nbsp;Spotify&lt;br&gt;&amp;nbsp;]" style="rounded=0;whiteSpace=wrap;html=1;fillColor=#cdeb8b;strokeColor=#36393d;align=left;verticalAlign=top;fontColor=#000000;" parent="1" vertex="1">
                    <mxGeometry x="1950" y="2490" width="180" height="120" as="geometry"/>
                </mxCell>
                <mxCell id="130" style="edgeStyle=elbowEdgeStyle;shape=connector;rounded=1;elbow=vertical;html=1;labelBackgroundColor=default;strokeColor=#999999;fontFamily=Helvetica;fontSize=11;fontColor=#000000;endArrow=classic;" parent="1" source="85" target="2" edge="1">
                    <mxGeometry relative="1" as="geometry"/>
                </mxCell>
                <mxCell id="85" value="CompleteSlice&lt;br&gt;&amp;nbsp;- time: 2024-02-08&lt;br&gt;&amp;nbsp;- contractor: Joe Smith&lt;br&gt;&amp;nbsp;- client: Uber&lt;br&gt;&amp;nbsp;- project: ride_requests&lt;br&gt;&amp;nbsp;- type: State View&lt;br&gt;&amp;nbsp;- name: PotentialDriverList" style="rounded=0;whiteSpace=wrap;html=1;fillColor=#66B2FF;strokeColor=#36393d;align=left;verticalAlign=top;fontColor=#000000;" parent="1" vertex="1">
                    <mxGeometry x="3630" y="2540" width="180" height="120" as="geometry"/>
                </mxCell>
                <mxCell id="88" value="State View" style="rounded=0;whiteSpace=wrap;html=1;strokeColor=#666666;fontFamily=Helvetica;fontSize=12;fontColor=#333333;fillColor=#99CCFF;" parent="1" vertex="1">
                    <mxGeometry x="3482.5" y="1960" width="112.5" height="20" as="geometry"/>
                </mxCell>
                <mxCell id="89" value="type" style="rounded=0;whiteSpace=wrap;html=1;strokeColor=#666666;fontFamily=Helvetica;fontSize=12;fontColor=#333333;fillColor=#f5f5f5;align=right;" parent="1" vertex="1">
                    <mxGeometry x="3435" y="1960" width="47.5" height="20" as="geometry"/>
                </mxCell>
                <mxCell id="90" value="pick type" style="rounded=0;whiteSpace=wrap;html=1;strokeColor=#666666;fontFamily=Helvetica;fontSize=12;fontColor=#333333;fillColor=#FFFFFF;" parent="1" vertex="1">
                    <mxGeometry x="2257.5" y="1960" width="112.5" height="20" as="geometry"/>
                </mxCell>
                <mxCell id="91" value="type" style="rounded=0;whiteSpace=wrap;html=1;strokeColor=#666666;fontFamily=Helvetica;fontSize=12;fontColor=#333333;fillColor=#f5f5f5;align=right;" parent="1" vertex="1">
                    <mxGeometry x="2210" y="1960" width="47.5" height="20" as="geometry"/>
                </mxCell>
                <mxCell id="92" value="pick type" style="rounded=0;whiteSpace=wrap;html=1;strokeColor=#666666;fontFamily=Helvetica;fontSize=12;fontColor=#333333;fillColor=#FFFFFF;" parent="1" vertex="1">
                    <mxGeometry x="2672.5" y="1960" width="112.5" height="20" as="geometry"/>
                </mxCell>
                <mxCell id="93" value="type" style="rounded=0;whiteSpace=wrap;html=1;strokeColor=#666666;fontFamily=Helvetica;fontSize=12;fontColor=#333333;fillColor=#f5f5f5;align=right;" parent="1" vertex="1">
                    <mxGeometry x="2625" y="1960" width="47.5" height="20" as="geometry"/>
                </mxCell>
                <mxCell id="108" value="" style="rounded=0;whiteSpace=wrap;html=1;fillColor=#f5f5f5;fontColor=#333333;strokeColor=#666666;" parent="1" vertex="1">
                    <mxGeometry x="2980" y="1830" width="350" height="340" as="geometry"/>
                </mxCell>
                <mxCell id="109" value="Work Entry" style="rounded=0;whiteSpace=wrap;html=1;strokeColor=none;fontFamily=Helvetica;fontSize=12;fontColor=#333333;fillColor=#f5f5f5;align=left;verticalAlign=top;" parent="1" vertex="1">
                    <mxGeometry x="3000" y="1870" width="100" height="30" as="geometry"/>
                </mxCell>
                <mxCell id="110" value="Enter Slice" style="rounded=0;whiteSpace=wrap;html=1;strokeColor=#666666;fontFamily=Helvetica;fontSize=12;fontColor=#333333;fillColor=#FF9999;" parent="1" vertex="1">
                    <mxGeometry x="3000" y="1900" width="90" height="20" as="geometry"/>
                </mxCell>
                <mxCell id="111" value="Enter Hours" style="rounded=0;whiteSpace=wrap;html=1;strokeColor=#666666;fontFamily=Helvetica;fontSize=12;fontColor=#333333;fillColor=#f5f5f5;" parent="1" vertex="1">
                    <mxGeometry x="3090" y="1900" width="90" height="20" as="geometry"/>
                </mxCell>
                <mxCell id="112" value="&lt;span style=&quot;background-color: rgb(255, 153, 153);&quot;&gt;Work Entry&lt;/span&gt; | Invoicing | Reports | Logout" style="rounded=0;whiteSpace=wrap;html=1;strokeColor=#666666;fontFamily=Helvetica;fontSize=12;fontColor=#333333;fillColor=#f5f5f5;align=right;" parent="1" vertex="1">
                    <mxGeometry x="2980" y="1830" width="350" height="30" as="geometry"/>
                </mxCell>
                <mxCell id="113" value="" style="rounded=0;whiteSpace=wrap;html=1;strokeColor=#666666;fontFamily=Helvetica;fontSize=12;fontColor=#333333;fillColor=#f5f5f5;" parent="1" vertex="1">
                    <mxGeometry x="2998.75" y="1920" width="310" height="230" as="geometry"/>
                </mxCell>
                <mxCell id="114" value="" style="rounded=0;whiteSpace=wrap;html=1;strokeColor=#666666;fontFamily=Helvetica;fontSize=12;fontColor=#333333;fillColor=#f5f5f5;" parent="1" vertex="1">
                    <mxGeometry x="3072.5" y="2050" width="172.5" height="20" as="geometry"/>
                </mxCell>
                <mxCell id="115" value="" style="rounded=0;whiteSpace=wrap;html=1;strokeColor=#666666;fontFamily=Helvetica;fontSize=12;fontColor=#333333;fillColor=#f5f5f5;" parent="1" vertex="1">
                    <mxGeometry x="3072.5" y="2080" width="72.5" height="20" as="geometry"/>
                </mxCell>
                <mxCell id="116" value="Uber" style="rounded=0;whiteSpace=wrap;html=1;strokeColor=#666666;fontFamily=Helvetica;fontSize=12;fontColor=#333333;fillColor=#99CCFF;" parent="1" vertex="1">
                    <mxGeometry x="3072.5" y="1990" width="112.5" height="20" as="geometry"/>
                </mxCell>
                <mxCell id="117" value="client" style="rounded=0;whiteSpace=wrap;html=1;strokeColor=#666666;fontFamily=Helvetica;fontSize=12;fontColor=#333333;fillColor=#f5f5f5;align=right;" parent="1" vertex="1">
                    <mxGeometry x="3025" y="1990" width="47.5" height="20" as="geometry"/>
                </mxCell>
                <mxCell id="118" value="date" style="rounded=0;whiteSpace=wrap;html=1;strokeColor=#666666;fontFamily=Helvetica;fontSize=12;fontColor=#333333;fillColor=#f5f5f5;align=right;" parent="1" vertex="1">
                    <mxGeometry x="3025" y="2080" width="47.5" height="20" as="geometry"/>
                </mxCell>
                <mxCell id="119" value="name" style="rounded=0;whiteSpace=wrap;html=1;strokeColor=#666666;fontFamily=Helvetica;fontSize=12;fontColor=#333333;fillColor=#f5f5f5;align=right;" parent="1" vertex="1">
                    <mxGeometry x="3025" y="2050" width="47.5" height="20" as="geometry"/>
                </mxCell>
                <mxCell id="120" value="Enter the slice you completed:" style="rounded=0;whiteSpace=wrap;html=1;strokeColor=none;fontFamily=Helvetica;fontSize=12;fontColor=#333333;fillColor=#f5f5f5;" parent="1" vertex="1">
                    <mxGeometry x="3010" y="1920" width="170" height="30" as="geometry"/>
                </mxCell>
                <mxCell id="121" value="Save" style="rounded=0;whiteSpace=wrap;html=1;strokeColor=#666666;fontFamily=Helvetica;fontSize=12;fontColor=#333333;fillColor=#f5f5f5;" parent="1" vertex="1">
                    <mxGeometry x="3190" y="2090" width="80" height="30" as="geometry"/>
                </mxCell>
                <mxCell id="123" value="pick type" style="rounded=0;whiteSpace=wrap;html=1;strokeColor=#666666;fontFamily=Helvetica;fontSize=12;fontColor=#333333;fillColor=#FFFFFF;" parent="1" vertex="1">
                    <mxGeometry x="3072.5" y="1960" width="112.5" height="20" as="geometry"/>
                </mxCell>
                <mxCell id="124" value="type" style="rounded=0;whiteSpace=wrap;html=1;strokeColor=#666666;fontFamily=Helvetica;fontSize=12;fontColor=#333333;fillColor=#f5f5f5;align=right;" parent="1" vertex="1">
                    <mxGeometry x="3025" y="1960" width="47.5" height="20" as="geometry"/>
                </mxCell>
                <mxCell id="129" style="edgeStyle=elbowEdgeStyle;shape=connector;rounded=1;elbow=vertical;html=1;entryX=1;entryY=0.5;entryDx=0;entryDy=0;labelBackgroundColor=default;strokeColor=#999999;fontFamily=Helvetica;fontSize=11;fontColor=#000000;endArrow=classic;" parent="1" source="125" target="89" edge="1">
                    <mxGeometry relative="1" as="geometry"/>
                </mxCell>
                <mxCell id="125" value="State Change&lt;br style=&quot;font-size: 11px;&quot;&gt;State View" style="rounded=0;whiteSpace=wrap;html=1;strokeColor=#36393d;fontFamily=Helvetica;fontSize=11;fillColor=#FFFFFF;align=left;verticalAlign=top;fontColor=#000000;" parent="1" vertex="1">
                    <mxGeometry x="3185" y="1940" width="95" height="40" as="geometry"/>
                </mxCell>
                <mxCell id="127" style="edgeStyle=elbowEdgeStyle;shape=connector;rounded=1;elbow=vertical;html=1;entryX=1;entryY=0.5;entryDx=0;entryDy=0;labelBackgroundColor=default;strokeColor=#999999;fontFamily=Helvetica;fontSize=11;fontColor=#000000;endArrow=classic;" parent="1" source="73" target="117" edge="1">
                    <mxGeometry relative="1" as="geometry"/>
                </mxCell>
                <mxCell id="131" value="Joe Smith&lt;br style=&quot;font-size: 23px;&quot;&gt;contractor" style="rounded=0;whiteSpace=wrap;html=1;fillColor=#f5f5f5;fontColor=#333333;strokeColor=#666666;fontSize=23;" vertex="1" parent="1">
                    <mxGeometry x="430" y="2100" width="120" height="60" as="geometry"/>
                </mxCell>
                <mxCell id="132" value="Mary&amp;nbsp;&lt;br&gt;owner" style="rounded=0;whiteSpace=wrap;html=1;fillColor=#f5f5f5;fontColor=#333333;strokeColor=#666666;fontSize=23;" vertex="1" parent="1">
                    <mxGeometry x="430" y="700" width="120" height="60" as="geometry"/>
                </mxCell>
                <mxCell id="133" value="" style="rounded=0;whiteSpace=wrap;html=1;fillColor=#f5f5f5;fontColor=#333333;strokeColor=#666666;" vertex="1" parent="1">
                    <mxGeometry x="6440" y="500" width="350" height="890" as="geometry"/>
                </mxCell>
                <mxCell id="134" value="Invoicing" style="rounded=0;whiteSpace=wrap;html=1;strokeColor=none;fontFamily=Helvetica;fontSize=12;fontColor=#333333;fillColor=#f5f5f5;align=left;verticalAlign=top;" vertex="1" parent="1">
                    <mxGeometry x="6460" y="540" width="100" height="30" as="geometry"/>
                </mxCell>
                <mxCell id="135" value="Unpaid" style="rounded=0;whiteSpace=wrap;html=1;strokeColor=#666666;fontFamily=Helvetica;fontSize=12;fontColor=#333333;fillColor=#FF9999;" vertex="1" parent="1">
                    <mxGeometry x="6460" y="570" width="90" height="20" as="geometry"/>
                </mxCell>
                <mxCell id="136" value="History" style="rounded=0;whiteSpace=wrap;html=1;strokeColor=#666666;fontFamily=Helvetica;fontSize=12;fontColor=#333333;fillColor=#f5f5f5;" vertex="1" parent="1">
                    <mxGeometry x="6550" y="570" width="90" height="20" as="geometry"/>
                </mxCell>
                <mxCell id="137" value="&lt;span style=&quot;background-color: rgb(255, 255, 255);&quot;&gt;Work Entry&lt;/span&gt; | &lt;span style=&quot;background-color: rgb(255, 153, 153);&quot;&gt;Invoicing&lt;/span&gt; | Reports | Logout" style="rounded=0;whiteSpace=wrap;html=1;strokeColor=#666666;fontFamily=Helvetica;fontSize=12;fontColor=#333333;fillColor=#f5f5f5;align=right;" vertex="1" parent="1">
                    <mxGeometry x="6440" y="500" width="350" height="30" as="geometry"/>
                </mxCell>
                <mxCell id="138" value="" style="rounded=0;whiteSpace=wrap;html=1;strokeColor=#666666;fontFamily=Helvetica;fontSize=12;fontColor=#333333;fillColor=#f5f5f5;" vertex="1" parent="1">
                    <mxGeometry x="6458.75" y="590" width="310" height="780" as="geometry"/>
                </mxCell>
                <mxCell id="149" value="Uber - 2024-01" style="rounded=0;whiteSpace=wrap;html=1;labelBackgroundColor=none;fontSize=14;fillColor=#f5f5f5;fontColor=#333333;strokeColor=#666666;align=left;verticalAlign=top;" vertex="1" parent="1">
                    <mxGeometry x="6478.75" y="920" width="270" height="270" as="geometry"/>
                </mxCell>
                <mxCell id="146" value="Generate Invoice" style="rounded=0;whiteSpace=wrap;html=1;strokeColor=#666666;fontFamily=Helvetica;fontSize=12;fontColor=#333333;fillColor=#99CCFF;" vertex="1" parent="1">
                    <mxGeometry x="6658.75" y="1150" width="80" height="30" as="geometry"/>
                </mxCell>
                <mxCell id="150" value="Amazon - 2024-01" style="rounded=0;whiteSpace=wrap;html=1;labelBackgroundColor=none;fontSize=14;fillColor=#f5f5f5;fontColor=#333333;strokeColor=#666666;align=left;verticalAlign=top;" vertex="1" parent="1">
                    <mxGeometry x="6478.75" y="1200" width="270" height="120" as="geometry"/>
                </mxCell>
                <mxCell id="183" value="" style="edgeStyle=elbowEdgeStyle;shape=connector;rounded=1;html=1;labelBackgroundColor=default;strokeColor=#B3B3B3;fontFamily=Helvetica;fontSize=62;fontColor=#1BA1E2;endArrow=classic;exitX=1;exitY=0.5;exitDx=0;exitDy=0;" edge="1" parent="1" source="162" target="182">
                    <mxGeometry relative="1" as="geometry"/>
                </mxCell>
                <mxCell id="151" value="Generate Invoice" style="rounded=0;whiteSpace=wrap;html=1;strokeColor=#666666;fontFamily=Helvetica;fontSize=12;fontColor=#333333;fillColor=#99CCFF;" vertex="1" parent="1">
                    <mxGeometry x="6658.75" y="1280" width="80" height="30" as="geometry"/>
                </mxCell>
                <mxCell id="152" value="Joe Smith&lt;br&gt;&lt;br&gt;ride_requests&lt;span style=&quot;white-space: pre;&quot;&gt;&#9;&lt;/span&gt;4&lt;span style=&quot;white-space: pre;&quot;&gt;&#9;&lt;/span&gt;slices&lt;span style=&quot;white-space: pre;&quot;&gt;&#9;&lt;/span&gt;10000&lt;span style=&quot;white-space: pre;&quot;&gt;&#9;&lt;/span&gt;40000&lt;br&gt;ride_requests&amp;nbsp; 10&lt;span style=&quot;white-space: pre;&quot;&gt;&#9;&lt;/span&gt;hours&lt;span style=&quot;white-space: pre;&quot;&gt;&#9;&lt;/span&gt;500&lt;span style=&quot;white-space: pre;&quot;&gt;&#9;&lt;/span&gt;&lt;span style=&quot;white-space: pre;&quot;&gt;&#9;&lt;/span&gt;5000&lt;br&gt;&lt;br&gt;trip_price&lt;span style=&quot;white-space: pre;&quot;&gt;&#9;&lt;/span&gt;&lt;span style=&quot;white-space: pre;&quot;&gt;&#9;&lt;/span&gt;25&lt;span style=&quot;white-space: pre;&quot;&gt;&#9;&lt;/span&gt;hours&lt;span style=&quot;white-space: pre;&quot;&gt;&#9;&lt;/span&gt;500&lt;span style=&quot;white-space: pre;&quot;&gt;&#9;&lt;/span&gt;&lt;span style=&quot;white-space: pre;&quot;&gt;&#9;&lt;/span&gt;12500" style="rounded=0;whiteSpace=wrap;html=1;labelBackgroundColor=none;strokeColor=#666666;fontFamily=Helvetica;fontSize=10;fontColor=#333333;fillColor=#CDEB8B;align=left;verticalAlign=top;" vertex="1" parent="1">
                    <mxGeometry x="6487.5" y="951" width="250" height="90" as="geometry"/>
                </mxCell>
                <mxCell id="153" value="Jim Bob&lt;br&gt;trip_price&lt;span style=&quot;white-space: pre;&quot;&gt;&#9;&lt;/span&gt;&lt;span style=&quot;white-space: pre;&quot;&gt;&#9;&lt;/span&gt;100&lt;span style=&quot;white-space: pre;&quot;&gt;&#9;&lt;/span&gt;hours&lt;span style=&quot;white-space: pre;&quot;&gt;&#9;&lt;/span&gt;500&lt;span style=&quot;white-space: pre;&quot;&gt;&#9;&lt;/span&gt;&lt;span style=&quot;white-space: pre;&quot;&gt;&#9;&lt;/span&gt;50000" style="rounded=0;whiteSpace=wrap;html=1;labelBackgroundColor=none;strokeColor=#666666;fontFamily=Helvetica;fontSize=10;fontColor=#333333;fillColor=#CDEB8B;align=left;verticalAlign=top;" vertex="1" parent="1">
                    <mxGeometry x="6487.5" y="1045" width="250" height="40" as="geometry"/>
                </mxCell>
                <mxCell id="155" value="Subtotal&lt;span style=&quot;white-space: pre;&quot;&gt;&#9;&lt;/span&gt;&lt;span style=&quot;white-space: pre;&quot;&gt;&#9;&lt;/span&gt;107500&lt;br&gt;GST&lt;span style=&quot;white-space: pre;&quot;&gt;&#9;&lt;/span&gt;&lt;span style=&quot;white-space: pre;&quot;&gt;&#9;&lt;/span&gt;&lt;span style=&quot;white-space: pre;&quot;&gt;&#9;&lt;/span&gt;&amp;nbsp; &amp;nbsp; 5375&lt;br&gt;Total&amp;nbsp; &amp;nbsp; &amp;nbsp; &amp;nbsp; &amp;nbsp; &amp;nbsp; &amp;nbsp; &amp;nbsp; &amp;nbsp;112875" style="rounded=0;whiteSpace=wrap;html=1;labelBackgroundColor=none;strokeColor=#666666;fontFamily=Helvetica;fontSize=10;fontColor=#333333;fillColor=#CDEB8B;align=left;verticalAlign=top;" vertex="1" parent="1">
                    <mxGeometry x="6608.75" y="1090" width="130" height="50" as="geometry"/>
                </mxCell>
                <mxCell id="156" value="" style="shape=flexArrow;endArrow=classic;html=1;fontFamily=Helvetica;fontSize=10;fontColor=#333333;fillColor=#1ba1e2;strokeColor=#006EAF;" edge="1" parent="1">
                    <mxGeometry width="50" height="50" relative="1" as="geometry">
                        <mxPoint x="1970" y="190" as="sourcePoint"/>
                        <mxPoint x="4090" y="190" as="targetPoint"/>
                    </mxGeometry>
                </mxCell>
                <mxCell id="157" value="Tracking Hours" style="rounded=0;whiteSpace=wrap;html=1;labelBackgroundColor=none;strokeColor=#666666;fontFamily=Helvetica;fontSize=62;fontColor=#1BA1E2;fillColor=none;align=left;fontStyle=1" vertex="1" parent="1">
                    <mxGeometry x="1970" y="80" width="1280" height="100" as="geometry"/>
                </mxCell>
                <mxCell id="158" value="" style="shape=flexArrow;endArrow=classic;html=1;fontFamily=Helvetica;fontSize=10;fontColor=#333333;fillColor=#1ba1e2;strokeColor=#006EAF;" edge="1" parent="1">
                    <mxGeometry width="50" height="50" relative="1" as="geometry">
                        <mxPoint x="9130" y="270" as="sourcePoint"/>
                        <mxPoint x="11250" y="270" as="targetPoint"/>
                    </mxGeometry>
                </mxCell>
                <mxCell id="159" value="Invoicing" style="rounded=0;whiteSpace=wrap;html=1;labelBackgroundColor=none;strokeColor=#666666;fontFamily=Helvetica;fontSize=62;fontColor=#1BA1E2;fillColor=none;align=left;fontStyle=1" vertex="1" parent="1">
                    <mxGeometry x="6458.75" y="160" width="1280" height="100" as="geometry"/>
                </mxCell>
                <mxCell id="172" style="edgeStyle=elbowEdgeStyle;shape=connector;rounded=1;html=1;labelBackgroundColor=default;strokeColor=#B3B3B3;fontFamily=Helvetica;fontSize=62;fontColor=#1BA1E2;endArrow=classic;" edge="1" parent="1" source="160" target="133">
                    <mxGeometry relative="1" as="geometry"/>
                </mxCell>
                <mxCell id="229" style="edgeStyle=elbowEdgeStyle;elbow=vertical;html=1;entryX=0;entryY=0.25;entryDx=0;entryDy=0;strokeColor=#999999;" edge="1" parent="1" source="160" target="182">
                    <mxGeometry relative="1" as="geometry"/>
                </mxCell>
                <mxCell id="160" value="SourceInfoForInvoicing&lt;br&gt;{&lt;br&gt;{ Uber &lt;br&gt;&amp;nbsp; &amp;nbsp;{ &lt;span style=&quot;color: rgb(51, 51, 51); font-size: 10px;&quot;&gt;Joe Smith&lt;/span&gt;&lt;br style=&quot;color: rgb(51, 51, 51); font-size: 10px;&quot;&gt;&lt;br style=&quot;color: rgb(51, 51, 51); font-size: 10px;&quot;&gt;&lt;span style=&quot;color: rgb(51, 51, 51); font-size: 10px;&quot;&gt;ride_requests&lt;/span&gt;&lt;span style=&quot;color: rgb(51, 51, 51); font-size: 10px;&quot;&gt;&#9;&lt;/span&gt;&lt;span style=&quot;color: rgb(51, 51, 51); font-size: 10px;&quot;&gt;4&lt;/span&gt;&lt;span style=&quot;color: rgb(51, 51, 51); font-size: 10px;&quot;&gt;&#9;&lt;/span&gt;&lt;span style=&quot;color: rgb(51, 51, 51); font-size: 10px;&quot;&gt;slices&lt;/span&gt;&lt;span style=&quot;color: rgb(51, 51, 51); font-size: 10px;&quot;&gt;&#9;&lt;/span&gt;&lt;span style=&quot;color: rgb(51, 51, 51); font-size: 10px;&quot;&gt;10000&lt;/span&gt;&lt;span style=&quot;color: rgb(51, 51, 51); font-size: 10px;&quot;&gt;&#9;&lt;/span&gt;&lt;span style=&quot;color: rgb(51, 51, 51); font-size: 10px;&quot;&gt;40000&lt;/span&gt;&lt;br style=&quot;color: rgb(51, 51, 51); font-size: 10px;&quot;&gt;&lt;span style=&quot;color: rgb(51, 51, 51); font-size: 10px;&quot;&gt;ride_requests&amp;nbsp; 10&lt;/span&gt;&lt;span style=&quot;color: rgb(51, 51, 51); font-size: 10px;&quot;&gt;&#9;&lt;/span&gt;&lt;span style=&quot;color: rgb(51, 51, 51); font-size: 10px;&quot;&gt;hours&lt;/span&gt;&lt;span style=&quot;color: rgb(51, 51, 51); font-size: 10px;&quot;&gt;&#9;&lt;/span&gt;&lt;span style=&quot;color: rgb(51, 51, 51); font-size: 10px;&quot;&gt;500&lt;/span&gt;&lt;span style=&quot;color: rgb(51, 51, 51); font-size: 10px;&quot;&gt;&#9;&lt;/span&gt;&lt;span style=&quot;color: rgb(51, 51, 51); font-size: 10px;&quot;&gt;&#9;&lt;/span&gt;&lt;span style=&quot;color: rgb(51, 51, 51); font-size: 10px;&quot;&gt;5000&lt;/span&gt;&lt;br style=&quot;color: rgb(51, 51, 51); font-size: 10px;&quot;&gt;&lt;br style=&quot;color: rgb(51, 51, 51); font-size: 10px;&quot;&gt;&lt;span style=&quot;color: rgb(51, 51, 51); font-size: 10px;&quot;&gt;trip_price&lt;/span&gt;&lt;span style=&quot;color: rgb(51, 51, 51); font-size: 10px;&quot;&gt;&#9;&lt;/span&gt;&lt;span style=&quot;color: rgb(51, 51, 51); font-size: 10px;&quot;&gt;&#9;&lt;/span&gt;&lt;span style=&quot;color: rgb(51, 51, 51); font-size: 10px;&quot;&gt;25&lt;/span&gt;&lt;span style=&quot;color: rgb(51, 51, 51); font-size: 10px;&quot;&gt;&#9;&lt;/span&gt;&lt;span style=&quot;color: rgb(51, 51, 51); font-size: 10px;&quot;&gt;hours&lt;/span&gt;&lt;span style=&quot;color: rgb(51, 51, 51); font-size: 10px;&quot;&gt;&#9;&lt;/span&gt;&lt;span style=&quot;color: rgb(51, 51, 51); font-size: 10px;&quot;&gt;500&lt;/span&gt;&lt;span style=&quot;color: rgb(51, 51, 51); font-size: 10px;&quot;&gt;&#9;&lt;/span&gt;&lt;span style=&quot;color: rgb(51, 51, 51); font-size: 10px;&quot;&gt;&#9;&lt;/span&gt;&lt;span style=&quot;color: rgb(51, 51, 51); font-size: 10px;&quot;&gt;12500&lt;/span&gt;&lt;br&gt;etc&amp;nbsp; &amp;nbsp;}&lt;br&gt;&amp;nbsp; &amp;nbsp;&lt;br&gt;}&lt;br&gt;{ Amazon }&lt;br&gt;&lt;br&gt;}" style="rounded=0;whiteSpace=wrap;html=1;fillColor=#cdeb8b;strokeColor=#36393d;align=left;verticalAlign=top;fontColor=#000000;" vertex="1" parent="1">
                    <mxGeometry x="6150" y="2350" width="180" height="280" as="geometry"/>
                </mxCell>
                <mxCell id="161" value="Uber - 2023-12" style="rounded=0;whiteSpace=wrap;html=1;labelBackgroundColor=none;fontSize=14;fillColor=#f5f5f5;fontColor=#333333;strokeColor=#666666;align=left;verticalAlign=top;" vertex="1" parent="1">
                    <mxGeometry x="6478.75" y="620" width="270" height="270" as="geometry"/>
                </mxCell>
                <mxCell id="162" value="Generate Invoice" style="rounded=0;whiteSpace=wrap;html=1;strokeColor=#666666;fontFamily=Helvetica;fontSize=12;fontColor=#333333;fillColor=#99CCFF;" vertex="1" parent="1">
                    <mxGeometry x="6658.75" y="850" width="80" height="30" as="geometry"/>
                </mxCell>
                <mxCell id="163" value="Joe Smith&lt;br&gt;&lt;br&gt;ride_requests&lt;span style=&quot;white-space: pre;&quot;&gt;&#9;&lt;/span&gt;4&lt;span style=&quot;white-space: pre;&quot;&gt;&#9;&lt;/span&gt;slices&lt;span style=&quot;white-space: pre;&quot;&gt;&#9;&lt;/span&gt;10000&lt;span style=&quot;white-space: pre;&quot;&gt;&#9;&lt;/span&gt;40000&lt;br&gt;ride_requests&amp;nbsp; 10&lt;span style=&quot;white-space: pre;&quot;&gt;&#9;&lt;/span&gt;hours&lt;span style=&quot;white-space: pre;&quot;&gt;&#9;&lt;/span&gt;500&lt;span style=&quot;white-space: pre;&quot;&gt;&#9;&lt;/span&gt;&lt;span style=&quot;white-space: pre;&quot;&gt;&#9;&lt;/span&gt;5000&lt;br&gt;&lt;br&gt;trip_price&lt;span style=&quot;white-space: pre;&quot;&gt;&#9;&lt;/span&gt;&lt;span style=&quot;white-space: pre;&quot;&gt;&#9;&lt;/span&gt;25&lt;span style=&quot;white-space: pre;&quot;&gt;&#9;&lt;/span&gt;hours&lt;span style=&quot;white-space: pre;&quot;&gt;&#9;&lt;/span&gt;500&lt;span style=&quot;white-space: pre;&quot;&gt;&#9;&lt;/span&gt;&lt;span style=&quot;white-space: pre;&quot;&gt;&#9;&lt;/span&gt;12500" style="rounded=0;whiteSpace=wrap;html=1;labelBackgroundColor=none;strokeColor=#666666;fontFamily=Helvetica;fontSize=10;fontColor=#333333;fillColor=#CDEB8B;align=left;verticalAlign=top;" vertex="1" parent="1">
                    <mxGeometry x="6487.5" y="651" width="250" height="90" as="geometry"/>
                </mxCell>
                <mxCell id="164" value="Jim Bob&lt;br&gt;trip_price&lt;span style=&quot;white-space: pre;&quot;&gt;&#9;&lt;/span&gt;&lt;span style=&quot;white-space: pre;&quot;&gt;&#9;&lt;/span&gt;100&lt;span style=&quot;white-space: pre;&quot;&gt;&#9;&lt;/span&gt;hours&lt;span style=&quot;white-space: pre;&quot;&gt;&#9;&lt;/span&gt;500&lt;span style=&quot;white-space: pre;&quot;&gt;&#9;&lt;/span&gt;&lt;span style=&quot;white-space: pre;&quot;&gt;&#9;&lt;/span&gt;50000" style="rounded=0;whiteSpace=wrap;html=1;labelBackgroundColor=none;strokeColor=#666666;fontFamily=Helvetica;fontSize=10;fontColor=#333333;fillColor=#CDEB8B;align=left;verticalAlign=top;" vertex="1" parent="1">
                    <mxGeometry x="6487.5" y="745" width="250" height="40" as="geometry"/>
                </mxCell>
                <mxCell id="165" value="Subtotal&lt;span style=&quot;white-space: pre;&quot;&gt;&#9;&lt;/span&gt;&lt;span style=&quot;white-space: pre;&quot;&gt;&#9;&lt;/span&gt;107500&lt;br&gt;GST&lt;span style=&quot;white-space: pre;&quot;&gt;&#9;&lt;/span&gt;&lt;span style=&quot;white-space: pre;&quot;&gt;&#9;&lt;/span&gt;&lt;span style=&quot;white-space: pre;&quot;&gt;&#9;&lt;/span&gt;&amp;nbsp; &amp;nbsp; 5375&lt;br&gt;Total&amp;nbsp; &amp;nbsp; &amp;nbsp; &amp;nbsp; &amp;nbsp; &amp;nbsp; &amp;nbsp; &amp;nbsp; &amp;nbsp;112875" style="rounded=0;whiteSpace=wrap;html=1;labelBackgroundColor=none;strokeColor=#666666;fontFamily=Helvetica;fontSize=10;fontColor=#333333;fillColor=#CDEB8B;align=left;verticalAlign=top;" vertex="1" parent="1">
                    <mxGeometry x="6608.75" y="790" width="130" height="50" as="geometry"/>
                </mxCell>
                <mxCell id="166" value="Merge with Previous" style="rounded=0;whiteSpace=wrap;html=1;strokeColor=#666666;fontFamily=Helvetica;fontSize=12;fontColor=#333333;fillColor=#99CCFF;" vertex="1" parent="1">
                    <mxGeometry x="6570" y="1150" width="80" height="30" as="geometry"/>
                </mxCell>
                <mxCell id="174" value="" style="rounded=0;whiteSpace=wrap;html=1;strokeColor=#666666;fontFamily=Helvetica;fontSize=12;fontColor=#333333;fillColor=#f5f5f5;" vertex="1" parent="1">
                    <mxGeometry x="2257.5" y="2020" width="172.5" height="20" as="geometry"/>
                </mxCell>
                <mxCell id="175" value="project" style="rounded=0;whiteSpace=wrap;html=1;strokeColor=#666666;fontFamily=Helvetica;fontSize=12;fontColor=#333333;fillColor=#f5f5f5;align=right;" vertex="1" parent="1">
                    <mxGeometry x="2210" y="2020" width="47.5" height="20" as="geometry"/>
                </mxCell>
                <mxCell id="176" value="" style="rounded=0;whiteSpace=wrap;html=1;strokeColor=#666666;fontFamily=Helvetica;fontSize=12;fontColor=#333333;fillColor=#f5f5f5;" vertex="1" parent="1">
                    <mxGeometry x="2672.5" y="2020" width="172.5" height="20" as="geometry"/>
                </mxCell>
                <mxCell id="177" value="project" style="rounded=0;whiteSpace=wrap;html=1;strokeColor=#666666;fontFamily=Helvetica;fontSize=12;fontColor=#333333;fillColor=#f5f5f5;align=right;" vertex="1" parent="1">
                    <mxGeometry x="2625" y="2020" width="47.5" height="20" as="geometry"/>
                </mxCell>
                <mxCell id="73" value="Uber&lt;br&gt;Spotify&lt;br&gt;&lt;div style=&quot;&quot;&gt;&lt;span style=&quot;background-color: initial;&quot;&gt;Fedex&lt;/span&gt;&lt;/div&gt;" style="rounded=0;whiteSpace=wrap;html=1;strokeColor=#36393d;fontFamily=Helvetica;fontSize=12;fillColor=#cdeb8b;align=left;verticalAlign=top;fontColor=#000000;" parent="1" vertex="1">
                    <mxGeometry x="2672.5" y="2010" width="112.5" height="50" as="geometry"/>
                </mxCell>
                <mxCell id="178" value="" style="rounded=0;whiteSpace=wrap;html=1;strokeColor=#666666;fontFamily=Helvetica;fontSize=12;fontColor=#333333;fillColor=#f5f5f5;" vertex="1" parent="1">
                    <mxGeometry x="3072.5" y="2020" width="172.5" height="20" as="geometry"/>
                </mxCell>
                <mxCell id="179" value="project" style="rounded=0;whiteSpace=wrap;html=1;strokeColor=#666666;fontFamily=Helvetica;fontSize=12;fontColor=#333333;fillColor=#f5f5f5;align=right;" vertex="1" parent="1">
                    <mxGeometry x="3025" y="2020" width="47.5" height="20" as="geometry"/>
                </mxCell>
                <mxCell id="180" value="ride_requests" style="rounded=0;whiteSpace=wrap;html=1;strokeColor=#666666;fontFamily=Helvetica;fontSize=12;fontColor=#333333;fillColor=#99CCFF;" vertex="1" parent="1">
                    <mxGeometry x="3482.5" y="2020" width="172.5" height="20" as="geometry"/>
                </mxCell>
                <mxCell id="181" value="project" style="rounded=0;whiteSpace=wrap;html=1;strokeColor=#666666;fontFamily=Helvetica;fontSize=12;fontColor=#333333;fillColor=#f5f5f5;align=right;" vertex="1" parent="1">
                    <mxGeometry x="3435" y="2020" width="47.5" height="20" as="geometry"/>
                </mxCell>
                <mxCell id="188" style="edgeStyle=elbowEdgeStyle;html=1;entryX=0.5;entryY=0;entryDx=0;entryDy=0;elbow=vertical;" edge="1" parent="1" source="182" target="186">
                    <mxGeometry relative="1" as="geometry"/>
                </mxCell>
                <mxCell id="182" value="Generate Invoice&lt;br&gt;" style="whiteSpace=wrap;html=1;fillColor=#99CCFF;strokeColor=#666666;fontColor=#333333;rounded=0;" vertex="1" parent="1">
                    <mxGeometry x="6940" y="2440" width="120" height="60" as="geometry"/>
                </mxCell>
                <mxCell id="184" value="" style="shape=flexArrow;endArrow=classic;html=1;fontFamily=Helvetica;fontSize=10;fontColor=#333333;fillColor=#1ba1e2;strokeColor=#006EAF;" edge="1" parent="1">
                    <mxGeometry width="50" height="50" relative="1" as="geometry">
                        <mxPoint x="6468.75" y="280" as="sourcePoint"/>
                        <mxPoint x="8588.749999999998" y="280" as="targetPoint"/>
                    </mxGeometry>
                </mxCell>
                <mxCell id="185" value="Paying Subcontractors" style="rounded=0;whiteSpace=wrap;html=1;labelBackgroundColor=none;strokeColor=#666666;fontFamily=Helvetica;fontSize=62;fontColor=#1BA1E2;fillColor=none;align=left;fontStyle=1" vertex="1" parent="1">
                    <mxGeometry x="9140" y="140" width="1280" height="100" as="geometry"/>
                </mxCell>
                <mxCell id="234" style="edgeStyle=elbowEdgeStyle;shape=connector;rounded=1;elbow=vertical;html=1;entryX=0.25;entryY=1;entryDx=0;entryDy=0;labelBackgroundColor=default;strokeColor=#999999;fontFamily=Helvetica;fontSize=32;fontColor=#3399FF;endArrow=classic;" edge="1" parent="1" source="186" target="233">
                    <mxGeometry relative="1" as="geometry"/>
                </mxCell>
                <mxCell id="186" value="InvoiceGenerated&lt;br&gt;" style="rounded=0;whiteSpace=wrap;html=1;fillColor=#ffff88;strokeColor=#36393d;align=left;verticalAlign=top;fontColor=#000000;" vertex="1" parent="1">
                    <mxGeometry x="6960" y="2770" width="180" height="130" as="geometry"/>
                </mxCell>
                <mxCell id="208" value="" style="rounded=0;whiteSpace=wrap;html=1;fillColor=#f5f5f5;fontColor=#333333;strokeColor=#666666;" vertex="1" parent="1">
                    <mxGeometry x="1120" y="510" width="350" height="340" as="geometry"/>
                </mxCell>
                <mxCell id="209" value="Client Management" style="rounded=0;whiteSpace=wrap;html=1;strokeColor=none;fontFamily=Helvetica;fontSize=12;fontColor=#333333;fillColor=#f5f5f5;align=left;verticalAlign=top;" vertex="1" parent="1">
                    <mxGeometry x="1140" y="550" width="150" height="30" as="geometry"/>
                </mxCell>
                <mxCell id="210" value="Enter Client" style="rounded=0;whiteSpace=wrap;html=1;strokeColor=#666666;fontFamily=Helvetica;fontSize=12;fontColor=#333333;fillColor=#FF9999;" vertex="1" parent="1">
                    <mxGeometry x="1140" y="580" width="90" height="20" as="geometry"/>
                </mxCell>
                <mxCell id="212" value="&lt;span style=&quot;background-color: rgb(255, 153, 153);&quot;&gt;Clients&lt;/span&gt;&amp;nbsp;| Invoicing | Reports | Logout" style="rounded=0;whiteSpace=wrap;html=1;strokeColor=#666666;fontFamily=Helvetica;fontSize=12;fontColor=#333333;fillColor=#f5f5f5;align=right;" vertex="1" parent="1">
                    <mxGeometry x="1120" y="510" width="350" height="30" as="geometry"/>
                </mxCell>
                <mxCell id="213" value="" style="rounded=0;whiteSpace=wrap;html=1;strokeColor=#666666;fontFamily=Helvetica;fontSize=12;fontColor=#333333;fillColor=#f5f5f5;" vertex="1" parent="1">
                    <mxGeometry x="1138.75" y="600" width="310" height="230" as="geometry"/>
                </mxCell>
                <mxCell id="220" value="Set up client info" style="rounded=0;whiteSpace=wrap;html=1;strokeColor=none;fontFamily=Helvetica;fontSize=12;fontColor=#333333;fillColor=#f5f5f5;align=left;" vertex="1" parent="1">
                    <mxGeometry x="1150" y="600" width="170" height="30" as="geometry"/>
                </mxCell>
                <mxCell id="227" style="edgeStyle=elbowEdgeStyle;elbow=vertical;html=1;entryX=0.5;entryY=0;entryDx=0;entryDy=0;strokeColor=#CCCCCC;" edge="1" parent="1" source="221" target="226">
                    <mxGeometry relative="1" as="geometry"/>
                </mxCell>
                <mxCell id="221" value="Save" style="rounded=0;whiteSpace=wrap;html=1;strokeColor=#666666;fontFamily=Helvetica;fontSize=12;fontColor=#333333;fillColor=#f5f5f5;" vertex="1" parent="1">
                    <mxGeometry x="1330" y="770" width="80" height="30" as="geometry"/>
                </mxCell>
                <mxCell id="228" style="edgeStyle=elbowEdgeStyle;elbow=vertical;html=1;entryX=0.25;entryY=0;entryDx=0;entryDy=0;strokeColor=#CCCCCC;" edge="1" parent="1" source="226" target="74">
                    <mxGeometry relative="1" as="geometry"/>
                </mxCell>
                <mxCell id="226" value="AccuireClient&lt;br&gt;&amp;nbsp;- time: 2024-01-01&lt;br&gt;&amp;nbsp;- name: Spotify&lt;br&gt;&amp;nbsp;- invoice_prefix: SPO&lt;br&gt;&amp;nbsp;- slice_rate: $500/slice&lt;br&gt;&amp;nbsp;- hour_rate: $50/hr&lt;br&gt;&amp;nbsp;- taxable: yes" style="rounded=0;whiteSpace=wrap;html=1;fillColor=#1ba1e2;strokeColor=#006EAF;align=left;verticalAlign=top;fontColor=#ffffff;" vertex="1" parent="1">
                    <mxGeometry x="1390" y="2460" width="180" height="130" as="geometry"/>
                </mxCell>
                <mxCell id="241" style="edgeStyle=elbowEdgeStyle;shape=connector;rounded=1;elbow=vertical;html=1;entryX=0.5;entryY=0;entryDx=0;entryDy=0;labelBackgroundColor=default;strokeColor=#999999;fontFamily=Helvetica;fontSize=32;fontColor=#3399FF;endArrow=classic;" edge="1" parent="1" source="230" target="240">
                    <mxGeometry relative="1" as="geometry"/>
                </mxCell>
                <mxCell id="230" value="Apply Discount Codes" style="whiteSpace=wrap;html=1;fillColor=#99CCFF;strokeColor=#666666;fontColor=#333333;rounded=0;" vertex="1" parent="1">
                    <mxGeometry x="7730" y="2440" width="120" height="60" as="geometry"/>
                </mxCell>
                <mxCell id="236" style="edgeStyle=elbowEdgeStyle;shape=connector;rounded=1;elbow=vertical;html=1;entryX=0.5;entryY=0;entryDx=0;entryDy=0;labelBackgroundColor=default;strokeColor=#999999;fontFamily=Helvetica;fontSize=32;fontColor=#3399FF;endArrow=classic;exitX=0.828;exitY=1.034;exitDx=0;exitDy=0;exitPerimeter=0;" edge="1" parent="1" source="231" target="230">
                    <mxGeometry relative="1" as="geometry"/>
                </mxCell>
                <mxCell id="231" value="" style="verticalLabelPosition=bottom;html=1;verticalAlign=top;align=center;strokeColor=none;fillColor=#00BEF2;shape=mxgraph.azure.automation;pointerEvents=1;fontFamily=Helvetica;fontSize=11;fontColor=default;" vertex="1" parent="1">
                    <mxGeometry x="7151.11" y="585" width="288.89" height="260" as="geometry"/>
                </mxCell>
                <mxCell id="232" value="Invoice Enricher" style="text;html=1;strokeColor=none;fillColor=none;align=center;verticalAlign=middle;whiteSpace=wrap;rounded=0;fontFamily=Helvetica;fontSize=32;fontColor=#3399FF;" vertex="1" parent="1">
                    <mxGeometry x="7100" y="900" width="450" height="70" as="geometry"/>
                </mxCell>
                <mxCell id="235" style="edgeStyle=elbowEdgeStyle;shape=connector;rounded=1;elbow=vertical;html=1;entryX=0.52;entryY=1.029;entryDx=0;entryDy=0;entryPerimeter=0;labelBackgroundColor=default;strokeColor=#999999;fontFamily=Helvetica;fontSize=32;fontColor=#3399FF;endArrow=classic;" edge="1" parent="1" source="233" target="231">
                    <mxGeometry relative="1" as="geometry"/>
                </mxCell>
                <mxCell id="233" value="new invoices to enrich&lt;br&gt;done: n" style="rounded=0;whiteSpace=wrap;html=1;fillColor=#cdeb8b;strokeColor=#36393d;align=left;verticalAlign=top;fontColor=#000000;" vertex="1" parent="1">
                    <mxGeometry x="7400" y="2410" width="180" height="110" as="geometry"/>
                </mxCell>
                <mxCell id="239" style="edgeStyle=elbowEdgeStyle;shape=connector;rounded=1;elbow=vertical;html=1;entryX=0.347;entryY=1.009;entryDx=0;entryDy=0;entryPerimeter=0;labelBackgroundColor=default;strokeColor=#999999;fontFamily=Helvetica;fontSize=32;fontColor=#3399FF;endArrow=classic;" edge="1" parent="1" source="237" target="231">
                    <mxGeometry relative="1" as="geometry"/>
                </mxCell>
                <mxCell id="237" value="billing info for client" style="rounded=0;whiteSpace=wrap;html=1;fillColor=#cdeb8b;strokeColor=#36393d;align=left;verticalAlign=top;fontColor=#000000;" vertex="1" parent="1">
                    <mxGeometry x="7151.11" y="2415" width="180" height="110" as="geometry"/>
                </mxCell>
                <mxCell id="340" style="edgeStyle=elbowEdgeStyle;shape=connector;rounded=1;elbow=vertical;html=1;entryX=0.25;entryY=1;entryDx=0;entryDy=0;labelBackgroundColor=default;strokeColor=#999999;fontFamily=Helvetica;fontSize=32;fontColor=#3399FF;endArrow=classic;" edge="1" parent="1" source="240" target="339">
                    <mxGeometry relative="1" as="geometry"/>
                </mxCell>
                <mxCell id="240" value="Invoice Adjusted" style="rounded=0;whiteSpace=wrap;html=1;fillColor=#ffff88;strokeColor=#36393d;align=left;verticalAlign=top;fontColor=#000000;" vertex="1" parent="1">
                    <mxGeometry x="7760" y="2770" width="180" height="130" as="geometry"/>
                </mxCell>
                <mxCell id="243" value="" style="rounded=0;whiteSpace=wrap;html=1;fillColor=#f5f5f5;fontColor=#333333;strokeColor=#666666;" vertex="1" parent="1">
                    <mxGeometry x="7970" y="530" width="350" height="470" as="geometry"/>
                </mxCell>
                <mxCell id="244" value="Invoicing" style="rounded=0;whiteSpace=wrap;html=1;strokeColor=none;fontFamily=Helvetica;fontSize=12;fontColor=#333333;fillColor=#f5f5f5;align=left;verticalAlign=top;" vertex="1" parent="1">
                    <mxGeometry x="7990" y="570" width="100" height="30" as="geometry"/>
                </mxCell>
                <mxCell id="245" value="Confirm Ivoice" style="rounded=0;whiteSpace=wrap;html=1;strokeColor=#666666;fontFamily=Helvetica;fontSize=12;fontColor=#333333;fillColor=#FF9999;" vertex="1" parent="1">
                    <mxGeometry x="7990" y="600" width="90" height="20" as="geometry"/>
                </mxCell>
                <mxCell id="246" value="History" style="rounded=0;whiteSpace=wrap;html=1;strokeColor=#666666;fontFamily=Helvetica;fontSize=12;fontColor=#333333;fillColor=#f5f5f5;" vertex="1" parent="1">
                    <mxGeometry x="8080" y="600" width="90" height="20" as="geometry"/>
                </mxCell>
                <mxCell id="247" value="&lt;span style=&quot;background-color: rgb(255, 255, 255);&quot;&gt;Work Entry&lt;/span&gt; | &lt;span style=&quot;background-color: rgb(255, 153, 153);&quot;&gt;Invoicing&lt;/span&gt; | Reports | Logout" style="rounded=0;whiteSpace=wrap;html=1;strokeColor=#666666;fontFamily=Helvetica;fontSize=12;fontColor=#333333;fillColor=#f5f5f5;align=right;" vertex="1" parent="1">
                    <mxGeometry x="7970" y="530" width="350" height="30" as="geometry"/>
                </mxCell>
                <mxCell id="248" value="" style="rounded=0;whiteSpace=wrap;html=1;strokeColor=#666666;fontFamily=Helvetica;fontSize=12;fontColor=#333333;fillColor=#f5f5f5;" vertex="1" parent="1">
                    <mxGeometry x="7988.75" y="620" width="310" height="340" as="geometry"/>
                </mxCell>
                <mxCell id="256" value="Uber - 2023-12" style="rounded=0;whiteSpace=wrap;html=1;labelBackgroundColor=none;fontSize=14;fillColor=#f5f5f5;fontColor=#333333;strokeColor=#666666;align=left;verticalAlign=top;" vertex="1" parent="1">
                    <mxGeometry x="8008.75" y="650" width="270" height="270" as="geometry"/>
                </mxCell>
                <mxCell id="257" value="Confirm" style="rounded=0;whiteSpace=wrap;html=1;strokeColor=#666666;fontFamily=Helvetica;fontSize=12;fontColor=#333333;fillColor=#99CCFF;" vertex="1" parent="1">
                    <mxGeometry x="8188.75" y="880" width="80" height="30" as="geometry"/>
                </mxCell>
                <mxCell id="258" value="Joe Smith&lt;br&gt;&lt;br&gt;ride_requests&lt;span style=&quot;white-space: pre;&quot;&gt;&#9;&lt;/span&gt;4&lt;span style=&quot;white-space: pre;&quot;&gt;&#9;&lt;/span&gt;slices&lt;span style=&quot;white-space: pre;&quot;&gt;&#9;&lt;/span&gt;10000&lt;span style=&quot;white-space: pre;&quot;&gt;&#9;&lt;/span&gt;40000&lt;br&gt;ride_requests&amp;nbsp; 10&lt;span style=&quot;white-space: pre;&quot;&gt;&#9;&lt;/span&gt;hours&lt;span style=&quot;white-space: pre;&quot;&gt;&#9;&lt;/span&gt;500&lt;span style=&quot;white-space: pre;&quot;&gt;&#9;&lt;/span&gt;&lt;span style=&quot;white-space: pre;&quot;&gt;&#9;&lt;/span&gt;5000&lt;br&gt;&lt;br&gt;trip_price&lt;span style=&quot;white-space: pre;&quot;&gt;&#9;&lt;/span&gt;&lt;span style=&quot;white-space: pre;&quot;&gt;&#9;&lt;/span&gt;25&lt;span style=&quot;white-space: pre;&quot;&gt;&#9;&lt;/span&gt;hours&lt;span style=&quot;white-space: pre;&quot;&gt;&#9;&lt;/span&gt;500&lt;span style=&quot;white-space: pre;&quot;&gt;&#9;&lt;/span&gt;&lt;span style=&quot;white-space: pre;&quot;&gt;&#9;&lt;/span&gt;12500" style="rounded=0;whiteSpace=wrap;html=1;labelBackgroundColor=none;strokeColor=#666666;fontFamily=Helvetica;fontSize=10;fontColor=#333333;fillColor=#CDEB8B;align=left;verticalAlign=top;" vertex="1" parent="1">
                    <mxGeometry x="8017.5" y="681" width="250" height="90" as="geometry"/>
                </mxCell>
                <mxCell id="259" value="Jim Bob&lt;br&gt;trip_price&lt;span style=&quot;white-space: pre;&quot;&gt;&#9;&lt;/span&gt;&lt;span style=&quot;white-space: pre;&quot;&gt;&#9;&lt;/span&gt;100&lt;span style=&quot;white-space: pre;&quot;&gt;&#9;&lt;/span&gt;hours&lt;span style=&quot;white-space: pre;&quot;&gt;&#9;&lt;/span&gt;500&lt;span style=&quot;white-space: pre;&quot;&gt;&#9;&lt;/span&gt;&lt;span style=&quot;white-space: pre;&quot;&gt;&#9;&lt;/span&gt;50000" style="rounded=0;whiteSpace=wrap;html=1;labelBackgroundColor=none;strokeColor=#666666;fontFamily=Helvetica;fontSize=10;fontColor=#333333;fillColor=#CDEB8B;align=left;verticalAlign=top;" vertex="1" parent="1">
                    <mxGeometry x="8017.5" y="775" width="250" height="40" as="geometry"/>
                </mxCell>
                <mxCell id="260" value="Subtotal&lt;span style=&quot;white-space: pre;&quot;&gt;&#9;&lt;/span&gt;&lt;span style=&quot;white-space: pre;&quot;&gt;&#9;&lt;/span&gt;107500&lt;br&gt;GST&lt;span style=&quot;white-space: pre;&quot;&gt;&#9;&lt;/span&gt;&lt;span style=&quot;white-space: pre;&quot;&gt;&#9;&lt;/span&gt;&lt;span style=&quot;white-space: pre;&quot;&gt;&#9;&lt;/span&gt;&amp;nbsp; &amp;nbsp; 5375&lt;br&gt;Total&amp;nbsp; &amp;nbsp; &amp;nbsp; &amp;nbsp; &amp;nbsp; &amp;nbsp; &amp;nbsp; &amp;nbsp; &amp;nbsp;112875" style="rounded=0;whiteSpace=wrap;html=1;labelBackgroundColor=none;strokeColor=#666666;fontFamily=Helvetica;fontSize=10;fontColor=#333333;fillColor=#CDEB8B;align=left;verticalAlign=top;" vertex="1" parent="1">
                    <mxGeometry x="8138.75" y="820" width="130" height="50" as="geometry"/>
                </mxCell>
                <mxCell id="341" style="edgeStyle=elbowEdgeStyle;shape=connector;rounded=1;elbow=vertical;html=1;labelBackgroundColor=default;strokeColor=#999999;fontFamily=Helvetica;fontSize=32;fontColor=#3399FF;endArrow=classic;" edge="1" parent="1" source="339">
                    <mxGeometry relative="1" as="geometry">
                        <mxPoint x="8110" y="1010" as="targetPoint"/>
                    </mxGeometry>
                </mxCell>
                <mxCell id="339" value="Ivvoices to confirm" style="rounded=0;whiteSpace=wrap;html=1;fillColor=#cdeb8b;strokeColor=#36393d;align=left;verticalAlign=top;fontColor=#000000;" vertex="1" parent="1">
                    <mxGeometry x="7940" y="2390" width="180" height="110" as="geometry"/>
                </mxCell>
            </root>
        </mxGraphModel>
    </diagram>
</mxfile>